<svg xmlns="http://www.w3.org/2000/svg" width="129.117" height="39.987" viewBox="0 0 129.117 39.987">
  <g id="Group_28" data-name="Group 28" transform="translate(-290 -25.013)">
    <g id="Group_24" data-name="Group 24" transform="translate(-30.304)">
      <text id="Travel.ID" transform="translate(320.304 58)" fill="#fff" font-size="28" font-family="AcuminPro-Bold, Acumin Pro" font-weight="700"><tspan x="0" y="0">Travel.ID</tspan></text>
    </g>
    <path id="_3668831_airplane_flight_travel_icon" data-name="3668831_airplane_flight_travel_icon" d="M18.567,6.963l-.538-.514A2.888,2.888,0,0,0,15,5.872L9.693,7.8,7.407,5.55A5.033,5.033,0,0,0,6.2,4.716L4.92,4.138a1.056,1.056,0,0,0-1.143.128h0a.938.938,0,0,0-.134,1.092l.605,1.156A3.824,3.824,0,0,0,5.122,7.67L7.407,9.853,5.391,14.927A2.726,2.726,0,0,0,6,17.817l.538.514,3.9-5.587,3.361,2.7-.471,1.8a1.2,1.2,0,0,0,.4,1.284l.941.9,1.479-3.34,3.5-1.413-.941-.9a1.676,1.676,0,0,0-1.344-.385l-1.882.45-2.823-3.211Z" transform="translate(399.474 20.987)" fill="#37e0ff"/>
  </g>
</svg>
